# AST/ASF file generated using VICON BodyLanguage
# -----------------------------------------------
:version 1.10
:name VICON
:units
  mass 1.0
  length 0.45
  angle deg
:documentation
   .ast/.asf automatically generated from VICON data using
   VICON BodyBuilder and BodyLanguage model FoxedUp or BRILLIANT.MOD
:root
   order TX TY TZ RX RY RZ
   axis XYZ
   position 0 0 0  
   orientation 0 0 0 
:bonedata
  begin
     id 1 
     name lhipjoint
     direction 0.70531 -0.63749 0.310071 
     length 2.59589 
     axis 0 0 0  XYZ
  end
  begin
     id 2 
     name lfemur
     direction 0.34202 -0.939693 0  
     length 6.19797  
     axis 0 0 20  XYZ
    dof rx ry rz
    limits (-160.0 20.0)
           (-70.0 70.0)
           (-60.0 70.0)
  end
  begin
     id 3 
     name ltibia
     direction 0.34202 -0.939693 0   
     length 7.80054   
     axis 0 0 20   XYZ
    dof rx
    limits (-10.0 170.0)
  end
  begin
     id 4 
     name lfoot
     direction 0.0828572 -0.227648 0.970212   
     length 1.88124   
     axis -90 7.62852e-016 20   XYZ
    dof rx rz
    limits (-45.0 90.0)
           (-70.0 20.0)
  end
  begin
     id 5 
     name ltoes
     direction 1.53544e-011 -4.219e-011 1   
     length 0.948015   
     axis -90 7.62852e-016 20   XYZ
    dof rx
    limits (-90.0 20.0)
  end
  begin
     id 6 
     name rhipjoint
     direction -0.730062 -0.614543 0.29891   
     length 2.69282  
     axis 0 0 0  XYZ 
  end
  begin
     id 7 
     name rfemur
     direction -0.34202 -0.939693 0   
     length 5.86298   
     axis 0 0 -20   XYZ
    dof rx ry rz
    limits (-160.0 20.0)
           (-70.0 70.0)
           (-70.0 60.0)
  end
  begin
     id 8 
     name rtibia
     direction -0.34202 -0.939693 0   
     length 7.72374   
     axis 0 0 -20   XYZ
    dof rx
    limits (-10.0 170.0)
 end
 begin
     id 9 
     name rfoot
     direction -0.0967421 -0.265797 0.959163   
     length 2.02368  
     axis -90 -7.62852e-016 -20   XYZ
    dof rx rz
    limits (-45.0 90.0)
           (-20.0 70.0)
  end
  begin
     id 10 
     name rtoes
     direction -1.53524e-011 -4.21768e-011 1   
     length 1.01373   
     axis -90 -7.62852e-016 -20   XYZ
    dof rx
    limits (-90.0 20.0)
  end
  begin
     id 11 
     name lowerback
     direction 0.00561702 0.992801 -0.119643   
     length 2.02816   
     axis 0 0 0   XYZ
    dof rx ry rz
    limits (-20.0 45.0)
           (-30.0 30.0)
           (-30.0 30.0)
  end
  begin
     id 12 
     name upperback
     direction 0.00155544 0.995735 -0.0922509   
     length 2.02265   
     axis 0 0 0   XYZ
    dof rx ry rz
    limits (-20.0 45.0)
           (-30.0 30.0)
           (-30.0 30.0)
  end
  begin
     id 13 
     name thorax
     direction -0.000937535 0.999317 -0.0369292   
     length 2.04823   
     axis 0 0 0   XYZ
    dof rx ry rz
    limits (-20.0 45.0)
           (-30.0 30.0)
           (-30.0 30.0)
  end
  begin
     id 14 
     name lowerneck
     direction -0.0813151 0.981659 0.172436   
     length 1.8875   
     axis 0 0 0   XYZ
    dof rx ry rz
    limits (-20.0 45.0)
           (-30.0 30.0)
           (-30.0 30.0)
  end
  begin
     id 15 
     name upperneck
     direction 0.119359 0.955672 -0.269157   
     length 1.92801   
     axis 0 0 0   XYZ
    dof rx ry rz
    limits (-20.0 45.0)
           (-30.0 30.0)
           (-30.0 30.0)
  end
  begin
     id 16
     name head
     direction 0.0421007 0.992672 -0.113268  
     length 1.95809  
     axis 0 0 0   XYZ
    dof rx ry rz
    limits (-20.0 45.0)
           (-30.0 30.0)
           (-30.0 30.0)
  end
  begin
     id 17 
     name lclavicle
     direction 0.944093 0.32865 -0.0260136  
     length 3.84992  
     axis 0 0 0   XYZ
    dof ry rz
    limits (-20.0 10.0)
           (0.0 20.0)
  end
  begin
     id 18 
     name lhumerus
     direction 1 -4.48979e-011 -1.27712e-029   
     length 5.53593   
     axis 180 -30 -90   XYZ
    dof rx ry rz
    limits (-60.0 90.0)
           (-90.0 90.0)
           (-90.0 90.0)
  end
  begin
     id 19
     name lradius
     direction 1 -4.48966e-011 1.00051e-028   
     length 3.13345   
     axis 180 -30 -90   XYZ
    dof rx
    limits (-10.0 170.0)
  end
  begin
     id 20
     name lwrist
     direction 1 -4.4896e-011 2.56952e-028   
     length 1.56673   
     axis -5.12785e-016 90 90   XYZ
    dof ry
    limits (-180.0 0.0)
 end
  begin
     id 21 
     name lhand
     direction 1 -4.48934e-011 5.13905e-028   
     length 0.713374   
     axis -3.27915e-016 90 90   XYZ
    dof rx rz
    limits (-90.0 90.0)
           (-45.0 45.0)
  end
  begin
     id 22 
     name lfingers
     direction 1 -4.48973e-011 1.02781e-027   
     length 0.575141   
     axis -6.5583e-016 90 90   XYZ
    dof rx
    limits (0.0 90.0)
  end
  begin
     id 23
     name lthumb
     direction 0.707107 -6.34883e-011 0.707107   
     length 0.82579   
     axis -90 45 2.85299e-015   XYZ
    dof rx rz
    limits (-45.0 45.0)
           (-45.0 45.0)
  end
  begin
     id 24 
     name rclavicle
     direction -0.936895 0.34884 0.0232243   
     length 3.53304  
     axis 0 0 0   XYZ 
    dof ry rz
    limits (-10.0 20.0)
           (-20.0 0.0)
  end
  begin
     id 25 
     name rhumerus
     direction -1 -4.48965e-011 1.05514e-027  
     length 5.4685   
     axis 180 30 90   XYZ
    dof rx ry rz
    limits (-90.0 60.0)
           (-90.0 90.0)
           (-90.0 90.0)
  end
  begin
     id 26 
     name rradius
     direction -1 -4.48964e-011 -1.1079e-027   
     length 3.22411   
     axis 180 30 90   XYZ
    dof rx
    limits (-10.0 170.0)
  end
  begin
     id 27 
     name rwrist
     direction -1 -4.48973e-011 2.56952e-028   
     length 1.61206   
     axis -5.12785e-016 -90 -90   XYZ
    dof ry
    limits (-180.0 0.0)
  end
  begin
     id 28
     name rhand
     direction -1 -4.48957e-011 5.13905e-028   
     length 0.74528   
     axis -3.27915e-016 -90 -90   XYZ
    dof rx rz
    limits (-90.0 90.0)
           (-45.0 45.0)
  end
  begin
     id 29
     name rfingers
     direction -1 -4.4901e-011 1.02781e-027   
     length 0.600864   
     axis -6.5583e-016 -90 -90   XYZ
    dof rx
    limits (0.0 90.0)
  end
  begin
     id 30
     name rthumb
     direction -0.707107 -6.34972e-011 0.707107   
     length 0.862724   
     axis -90 -45 -2.85299e-015   XYZ
    dof rx rz
    limits (-45.0 45.0)
           (-45.0 45.0)
  end
:hierarchy
  begin
    root lhipjoint rhipjoint lowerback
    lhipjoint lfemur
    lfemur ltibia
    ltibia lfoot
    lfoot ltoes
    rhipjoint rfemur
    rfemur rtibia
    rtibia rfoot
    rfoot rtoes
    lowerback upperback
    upperback thorax
    thorax lowerneck lclavicle rclavicle
    lowerneck upperneck
    upperneck head
    lclavicle lhumerus
    lhumerus lradius
    lradius lwrist
    lwrist lhand lthumb
    lhand lfingers
    rclavicle rhumerus
    rhumerus rradius
    rradius rwrist
    rwrist rhand rthumb
    rhand rfingers
  end

#!OML:ASF G:\Work\Work\Patient Classification 1\Liu\Session 1\Liu.ASF
:FULLY-SPECIFIED
:DEGREES
17
root 10.3764 16.508 -39.9092 7.95926 -8.36237 -4.16194
lowerback 1.16148 1.7272 6.67749
upperback 4.22722 2.18275 1.23037
thorax 3.93669 1.29063 -2.4061
lowerneck -25.1639 -4.25505 -11.5899
upperneck 24.044 -2.85976 4.85746
head 12.4042 -1.6975 3.26544
rclavicle -8.34896e-015 9.54166e-015
rhumerus -37.2043 20.1232 -89.9251
rradius 46.4734
rwrist -10.5091
rhand -19.4731 18.9793
rfingers 7.12502
rthumb 6.84851 -10.89
lclavicle -8.34896e-015 9.54166e-015
lhumerus -33.5365 -2.43765 85.5894
lradius 30.1382
lwrist -2.49705
lhand -12.0493 32.4309
lfingers 7.12502
lthumb 14.0094 61.9388
rfemur 12.9299 1.11055 29.7595
rtibia -3.18055e-014
rfoot -11.5948 2.75213
rtoes -6.0931
lfemur -46.5832 2.88743 -18.8058
ltibia 36.2141
lfoot -17.2401 5.40477
ltoes -12.8302
18
root 10.3843 16.5048 -39.7922 7.99339 -8.67685 -4.42462
lowerback 1.3777 1.89145 6.7237
upperback 3.43401 2.45914 1.21633
thorax 3.01328 1.38752 -2.46712
lowerneck -22.1405 -3.95317 -11.4756
upperneck 23.2316 -2.91407 5.00883
head 11.5133 -1.70255 3.28717
rclavicle 1.09332e-014 1.11319e-014
rhumerus -38.9656 19.7668 -90.6087
rradius 46.4176
rwrist -10.455
rhand -11.0339 5.35768
rfingers 7.12502
rthumb 14.9879 -24.0799
lclavicle 1.09332e-014 1.11319e-014
lhumerus -35.2228 -2.46745 85.4308
lradius 30.1919
lwrist -2.72319
lhand -11.6129 32.5229
lfingers 7.12502
lthumb 14.43 62.0012
rfemur 13.3394 1.31049 29.8906
rtibia -2.22639e-014
rfoot -11.204 2.64933
rtoes -6.75426
lfemur -46.2755 2.80671 -18.4616
ltibia 36.4352
lfoot -17.6018 5.39235
ltoes -12.9085
19
root 10.3897 16.5016 -39.6769 7.99533 -9.01501 -4.79207
lowerback 1.56354 1.99305 6.89812
upperback 3.94377 2.5813 1.2699
thorax 3.45983 1.47574 -2.49864
lowerneck -24.1846 -4.16835 -11.5529
upperneck 23.5406 -2.95388 5.12055
head 12.0296 -1.69781 3.33656
rclavicle 2.98177e-015 -7.55382e-015
rhumerus -37.5257 19.8352 -90.2247
rradius 45.9384
rwrist -10.7042
rhand -11.9703 6.8344
rfingers 7.12502
rthumb 14.0857 -22.6682
lclavicle 2.98177e-015 -7.55382e-015
lhumerus -33.9605 -2.16059 85.3257
lradius 29.8007
lwrist -2.81955
lhand -11.7579 32.1946
lfingers 7.12502
lthumb 14.2903 61.6829
rfemur 13.7795 1.53728 30.1361
rtibia -2.54444e-014
rfoot -10.4866 2.62382
rtoes -6.16972
lfemur -45.9573 2.7143 -17.9547
ltibia 36.6936
lfoot -17.6653 5.7018
ltoes -13.0316
20
root 10.3975 16.5044 -39.5337 8.00282 -9.13973 -4.77871
lowerback 1.34003 1.95218 6.69095
upperback 3.26233 2.54459 1.25305
thorax 2.86011 1.42059 -2.41232
lowerneck -21.7249 -3.7069 -11.322
upperneck 23.0727 -2.69552 5.08866
head 11.3494 -1.58105 3.32597
rclavicle 4.75592e-014 -1.13307e-014
rhumerus -39.2319 20.0656 -90.9314
rradius 45.9828
rwrist -10.8503
rhand -12.1682 7.17923
rfingers 7.12502
rthumb 13.8949 -22.3366
lclavicle 4.75592e-014 -1.13307e-014
lhumerus -35.7639 -1.95739 85.2277
lradius 30.0101
lwrist -2.78109
lhand -12.2517 31.9786
lfingers 7.12502
lthumb 13.8144 61.4999
rfemur 14.2569 1.52991 29.95
rtibia -3.49861e-014
rfoot -9.85193 2.62076
rtoes -6.06492
lfemur -45.5426 2.47981 -17.9566
ltibia 36.9384
lfoot -17.7256 6.01803
ltoes -11.4392
21
root 10.402 16.5091 -39.4194 8.41019 -9.64163 -5.06927
lowerback 1.02979 2.232 6.88158
upperback 3.74667 2.86935 1.09314
thorax 3.59159 1.62127 -2.64721
lowerneck -24.1282 -3.92243 -10.9893
upperneck 23.5341 -2.83994 5.15415
head 11.9918 -1.59112 3.27709
rclavicle 2.57426e-014 3.61788e-014
rhumerus -37.8061 19.7602 -90.6525
rradius 45.7708
rwrist -10.995
rhand -12.0289 7.51081
rfingers 7.12502
rthumb 14.0291 -21.9957
lclavicle 2.57426e-014 3.61788e-014
lhumerus -34.384 -2.07121 84.9912
lradius 29.8821
lwrist -2.72565
lhand -12.4651 32.0712
lfingers 7.12502
lthumb 13.6087 61.6064
rfemur 14.2164 1.98265 30.0549
rtibia 6.36111e-015
rfoot -9.04428 2.43491
rtoes -6.96167
lfemur -45.582 2.66753 -17.6778
ltibia 37.2066
lfoot -17.9229 6.54575
ltoes -9.32478
22
root 10.4048 16.5006 -39.2683 7.52226 -8.21808 -4.71419
lowerback 1.6126 1.67086 6.51868
upperback 4.06477 2.15763 1.1201
thorax 3.50551 1.26028 -2.45202
lowerneck -24.951 -3.9628 -11.0535
upperneck 23.8538 -2.80561 5.26282
head 12.2738 -1.56545 3.34184
rclavicle -3.00662e-014 1.33186e-014
rhumerus -37.7164 19.7548 -90.5512
rradius 45.8208
rwrist -11.0222
rhand -11.8476 7.71012
rfingers 7.12502
rthumb 14.2038 -21.7842
lclavicle -3.00662e-014 1.33186e-014
lhumerus -34.0806 -1.63385 84.8952
lradius 29.588
lwrist -2.97997
lhand -12.2501 32.0373
lfingers 7.12502
lthumb 13.816 61.5585
rfemur 15.6956 0.279933 29.7743
rtibia 2.22639e-014
rfoot -8.75879 2.5113
rtoes -8.74174
lfemur -44.4462 1.47744 -18.1143
ltibia 37.4712
lfoot -17.5419 6.98142
ltoes -9.16607
23
root 10.41 16.5138 -39.1201 7.2987 -8.11266 -4.64922
lowerback 1.59923 1.54692 6.2226
upperback 4.09085 1.99094 1.16339
thorax 3.50987 1.16776 -2.24556
lowerneck -24.8581 -3.88026 -11.2144
upperneck 23.8492 -2.68365 5.41907
head 12.2472 -1.50629 3.45093
rclavicle 8.69683e-015 1.70955e-014
rhumerus -37.8569 19.8594 -90.4849
rradius 45.887
rwrist -10.6268
rhand -12.342 8.22357
rfingers 7.12502
rthumb 13.7274 -21.3036
lclavicle 8.69683e-015 1.70955e-014
lhumerus -34.2328 -1.13728 84.8427
lradius 29.3583
lwrist -3.14035
lhand -11.5552 32.5969
lfingers 7.12502
lthumb 14.4856 62.0712
rfemur 16.4294 0.00788651 29.5797
rtibia 6.36111e-015
rfoot -8.07232 2.36329
rtoes -11.2577
lfemur -43.8461 1.34798 -18.2744
ltibia 37.7056
lfoot -17.0317 7.8482
ltoes -8.13308
24
root 10.4156 16.5358 -38.9884 7.32199 -8.43401 -4.68279
lowerback 1.44423 1.64976 6.05137
upperback 4.11313 2.11899 1.06712
thorax 3.6278 1.2313 -2.24136
lowerneck -24.9775 -3.87616 -11.17
upperneck 23.9111 -2.75215 5.65626
head 12.3028 -1.50043 3.52544
rclavicle -1.71452e-014 -7.35503e-015
rhumerus -37.5859 19.6059 -90.433
rradius 45.6247
rwrist -9.83509
rhand -13.7675 11.1644
rfingers 7.12502
rthumb 12.3533 -18.4506
lclavicle -1.71452e-014 -7.35503e-015
lhumerus -34.2576 -1.02509 84.7193
lradius 29.3164
lwrist -3.07586
lhand -11.1931 33.5452
lfingers 7.12502
lthumb 14.8344 62.9942
rfemur 16.7702 0.201406 29.4322
rtibia -3.49861e-014
rfoot -7.23956 2.10494
rtoes -12.4757
lfemur -43.5575 1.47053 -18.2489
ltibia 37.9002
lfoot -16.7185 8.82102
ltoes -5.99486
25
root 10.4229 16.5676 -38.8368 7.29777 -8.53119 -4.40527
lowerback 1.30728 1.65355 5.54048
upperback 3.32286 2.1554 0.930881
thorax 2.86607 1.20422 -2.11088
lowerneck -22.234 -3.45288 -10.7029
upperneck 23.4097 -2.61599 5.50202
head 11.5564 -1.43831 3.39982
rclavicle -4.57205e-014 -3.8763e-015
rhumerus -39.4924 19.1828 -91.0439
rradius 45.735
rwrist -9.24519
rhand -13.9882 12.9139
rfingers 7.12502
rthumb 12.1405 -16.7138
lclavicle -4.57205e-014 -3.8763e-015
lhumerus -36.1122 -1.00511 84.5546
lradius 29.4834
lwrist -3.22251
lhand -11.8502 33.1657
lfingers 7.12502
lthumb 14.2014 62.6602
rfemur 17.22 0.154937 28.9231
rtibia -3.18055e-015
rfoot -6.6215 1.94316
rtoes -13.0114
lfemur -43.1181 1.47501 -18.6233
ltibia 38.0594
lfoot -16.8699 9.39113
ltoes -4.74934
26
root 10.4287 16.5803 -38.7016 7.27248 -8.6446 -4.11426
lowerback 1.06203 1.72207 5.15979
upperback 4.20147 2.20545 0.725364
thorax 3.91552 1.2599 -2.08132
lowerneck -25.4874 -3.89958 -10.6984
upperneck 24.0314 -2.93748 5.73609
head 12.4573 -1.52357 3.44859
rclavicle -1.02126e-014 9.54166e-015
rhumerus -37.5026 18.7549 -90.4096
rradius 45.5379
rwrist -9.18168
rhand -13.7726 12.4229
rfingers 7.12502
rthumb 12.3484 -17.1924
lclavicle -1.02126e-014 9.54166e-015
lhumerus -34.013 -0.879359 84.3981
lradius 28.9419
lwrist -3.43231
lhand -12.4226 32.0593
lfingers 7.12502
lthumb 13.6497 61.5917
rfemur 17.6786 0.124697 28.4003
rtibia 3.18055e-014
rfoot -5.78611 1.85107
rtoes -12.4987
lfemur -42.7538 1.67582 -19.0683
ltibia 38.1709
lfoot -16.9668 9.46727
ltoes -4.65852
27
root 10.4323 16.5762 -38.5778 7.30771 -8.51323 -3.79942
lowerback 1.14173 1.56485 4.42896
upperback 3.31084 2.03801 0.756697
thorax 2.89758 1.12014 -1.66859
lowerneck -22.7991 -3.51483 -10.8171
upperneck 23.6689 -2.69625 5.83705
head 11.7777 -1.44 3.53935
rclavicle 8.03835e-015 3.53837e-014
rhumerus -39.4883 18.7184 -90.9377
rradius 45.5413
rwrist -8.868
rhand -14.115 11.71
rfingers 7.12502
rthumb 12.0183 -17.9249
lclavicle 8.03835e-015 3.53837e-014
lhumerus -35.8413 -0.567427 84.367
lradius 28.7596
lwrist -3.55742
lhand -12.3654 32.0164
lfingers 7.12502
lthumb 13.7048 61.5451
rfemur 18.01 -0.141898 27.9019
rtibia -6.36111e-015
rfoot -4.4343 1.83457
rtoes -11.7608
lfemur -42.5737 1.89768 -19.6073
ltibia 38.2996
lfoot -16.5114 9.48122
ltoes -6.52412
28
root 10.4326 16.5838 -38.4495 7.27834 -8.16166 -3.60971
lowerback 1.47698 1.38832 3.96479
upperback 3.24201 1.82454 0.748785
thorax 2.60707 0.996163 -1.43259
lowerneck -23.7743 -3.63467 -11.0149
upperneck 24.2099 -2.74518 6.03791
head 12.1879 -1.45321 3.65624
rclavicle -2.50096e-014 8.49804e-015
rhumerus -39.5387 18.589 -90.8577
rradius 45.5455
rwrist -8.70032
rhand -13.9606 11.0225
rfingers 7.12502
rthumb 12.1671 -18.6036
lclavicle -2.50096e-014 8.49804e-015
lhumerus -35.5863 -0.273072 84.3062
lradius 28.3095
lwrist -3.81171
lhand -12.0402 32.7277
lfingers 7.12502
lthumb 14.0182 62.235
rfemur 17.6365 -0.647286 27.6033
rtibia 1.33581
rfoot -3.52649 1.90647
rtoes -13.1551
lfemur -42.2712 2.04883 -20.0118
ltibia 38.4605
lfoot -15.561 9.64506
ltoes -8.68063
29
root 10.4372 16.5976 -38.2981 7.12223 -8.20003 -3.4653
lowerback 1.36538 1.45633 3.81041
upperback 3.73007 1.90153 0.527997
thorax 3.18206 1.04926 -1.55985
lowerneck -25.6705 -3.95341 -11.039
upperneck 24.7025 -3.054 6.32954
head 12.7894 -1.53807 3.73614
rclavicle 5.25459e-015 -1.73051e-014
rhumerus -38.6484 17.9967 -90.5531
rradius 45.724
rwrist -8.85596
rhand -14.0778 12.1312
rfingers 7.12502
rthumb 12.0541 -17.5016
lclavicle 5.25459e-015 -1.73051e-014
lhumerus -34.3539 -0.286693 84.0669
lradius 27.7485
lwrist -4.10452
lhand -12.0442 32.2681
lfingers 7.12502
lthumb 14.0144 61.7756
rfemur 15.1676 -0.834756 27.2713
rtibia 6.77195
rfoot -4.4147 2.60733
rtoes -14.0634
lfemur -41.7009 2.38563 -20.3502
ltibia 38.6644
lfoot -14.9368 9.12385
ltoes -8.34879
30
root 10.4436 16.6164 -38.1433 7.10201 -8.3054 -3.32949
lowerback 0.880041 1.54726 3.64338
upperback 3.80713 2.00713 0.305519
thorax 3.54367 1.10745 -1.67753
lowerneck -25.373 -4.05823 -10.982
upperneck 24.4792 -3.32655 6.55691
head 12.6731 -1.62082 3.75981
rclavicle 3.17931e-014 2.81777e-014
rhumerus -38.6317 17.313 -90.5716
rradius 45.7781
rwrist -8.85545
rhand -13.9795 12.8193
rfingers 7.12502
rthumb 12.1489 -16.808
lclavicle 3.17931e-014 2.81777e-014
lhumerus -34.2231 -0.426626 83.8078
lradius 27.4555
lwrist -4.55798
lhand -12.4503 31.1324
lfingers 7.12502
lthumb 13.6231 60.6666
rfemur 14.124 -0.897951 26.9018
rtibia 9.37351
rfoot -4.10618 2.67858
rtoes -14.7792
lfemur -41.263 2.79091 -20.7128
ltibia 38.8389
lfoot -14.6086 8.35537
ltoes -7.04819
31
root 10.4458 16.6295 -38.008 7.18589 -8.05241 -3.26378
lowerback 0.773995 1.51088 3.48042
upperback 4.15616 1.95239 0.177951
thorax 3.96228 1.08778 -1.70979
lowerneck -26.9201 -4.54123 -11.162
upperneck 24.6995 -3.85786 6.88828
head 13.133 -1.80625 3.82979
rclavicle -3.80176e-015 9.0447e-015
rhumerus -37.7149 16.8804 -90.3723
rradius 45.5574
rwrist -9.01985
rhand -15.0526 13.9877
rfingers 7.12502
rthumb 11.114 -15.698
lclavicle -3.80176e-015 9.0447e-015
lhumerus -33.1393 -0.472408 83.6637
lradius 27.1456
lwrist -5.25991
lhand -12.7498 30.6866
lfingers 7.12502
lthumb 13.3344 60.2399
rfemur 13.1696 -1.2953 26.6697
rtibia 11.509
rfoot -3.49001 2.5979
rtoes -15.1075
lfemur -41.0587 3.11041 -21.0371
ltibia 39.011
lfoot -13.9892 8.26125
ltoes -7.06761
